# ASF file generated by Tido's ASF writer for MATLAB.
:version 1.10
:name VICON
:units
  mass 1
  length 0.45000000000000001
  angle deg
:documentation
   .ast/.asf automatically generated from VICON data using
   VICON BodyBuilder and BodyLanguage model FoxedUp or BRILLIANT.MOD
:root
  axis xyz
  order tx ty tz rx ry rz 
  position 0 0 0
  orientation 0 0 0
:bonedata
  begin
    id 1
    name lhipjoint
    direction 0.44017800000000001 -0.82263900000000001 0.359871
    length 1.1390085000000001
    axis 0 0 0 xyz
  end
  begin
    id 2
    name lfemur
    direction 0.34201999999999999 -0.939693 0
    length 3.5465939999999998
    axis 0 0 20 xyz
    dof rx ry rz 
    limits (-160 20)
           (-70 70)
           (-60 70)
  end
  begin
    id 3
    name ltibia
    direction 0.34201999999999999 -0.939693 0
    length 3.7970234999999999
    axis 0 0 20 xyz
    dof rx 
    limits (-10 170)
  end
  begin
    id 4
    name lfoot
    direction 0.088635099999999994 -0.24352299999999999 0.96583699999999995
    length 1.1853629999999999
    axis -90 7.62852e-016 20 xyz
    dof rx rz 
    limits (-45 90)
           (-70 20)
  end
  begin
    id 5
    name ltoes
    direction 1.53703e-011 -4.2171700000000001e-011 1
    length 0.59142150000000004
    axis -90 7.62852e-016 20 xyz
    dof rx 
    limits (-90 20)
  end
  begin
    id 6
    name rhipjoint
    direction -0.399779 -0.83977299999999999 0.367367
    length 1.115766
    axis 0 0 0 xyz
  end
  begin
    id 7
    name rfemur
    direction -0.34201999999999999 -0.939693 0
    length 3.4866269999999999
    axis 0 0 -20 xyz
    dof rx ry rz 
    limits (-160 20)
           (-70 70)
           (-70 60)
  end
  begin
    id 8
    name rtibia
    direction -0.34201999999999999 -0.939693 0
    length 3.9349440000000002
    axis 0 0 -20 xyz
    dof rx 
    limits (-10 170)
  end
  begin
    id 9
    name rfoot
    direction -0.108514 -0.29813899999999999 0.94833400000000001
    length 1.1974590000000001
    axis -90 -7.62852e-016 -20 xyz
    dof rx rz 
    limits (-45 90)
           (-20 70)
  end
  begin
    id 10
    name rtoes
    direction -1.5339199999999999e-011 -4.2207699999999999e-011 1
    length 0.59392350000000005
    axis -90 -7.62852e-016 -20 xyz
    dof rx 
    limits (-90 20)
  end
  begin
    id 11
    name lowerback
    direction 0.011325699999999999 0.99986600000000003 0.0118602
    length 1.164123
    axis 0 0 0 xyz
    dof rx ry rz 
    limits (-20 45)
           (-30 30)
           (-30 30)
  end
  begin
    id 12
    name upperback
    direction -0.016474699999999998 0.99519299999999999 -0.096537499999999998
    length 1.135656
    axis 0 0 0 xyz
    dof rx ry rz 
    limits (-20 45)
           (-30 30)
           (-30 30)
  end
  begin
    id 13
    name thorax
    direction -0.019430099999999999 0.99433000000000005 -0.10455200000000001
    length 1.1524455
    axis 0 0 0 xyz
    dof rx ry rz 
    limits (-20 45)
           (-30 30)
           (-30 30)
  end
  begin
    id 14
    name lowerneck
    direction 0.014854300000000001 0.995587 -0.092657000000000003
    length 0.772119
    axis 0 0 0 xyz
    dof rx ry rz 
    limits (-20 45)
           (-30 30)
           (-30 30)
  end
  begin
    id 15
    name upperneck
    direction -0.0135467 0.99365599999999998 -0.111639
    length 0.76021650000000007
    axis 0 0 0 xyz
    dof rx ry rz 
    limits (-20 45)
           (-30 30)
           (-30 30)
  end
  begin
    id 16
    name head
    direction -0.0061534900000000002 0.99954699999999996 -0.029447999999999998
    length 0.78578999999999999
    axis 0 0 0 xyz
    dof rx ry rz 
    limits (-20 45)
           (-30 30)
           (-30 30)
  end
  begin
    id 17
    name lclavicle
    direction 0.98826700000000001 0.14988499999999999 0.029371299999999999
    length 2.012499
    axis 0 0 0 xyz
    dof ry rz 
    limits (-20 10)
           (0 20)
  end
  begin
    id 18
    name lhumerus
    direction 1 -4.4898600000000001e-011 -1.1483300000000001e-027
    length 2.4171659999999999
    axis 180 -30 -90 xyz
    dof rx ry rz 
    limits (-60 90)
           (-90 90)
           (-90 90)
  end
  begin
    id 19
    name lradius
    direction 0.99999800000000005 0.00170963 -0.00098705499999999992
    length 1.773954
    axis 180 -30 -90 xyz
    dof rx 
    limits (-10 170)
  end
  begin
    id 20
    name lwrist
    direction 0.99999800000000005 7.53149e-005 -0.00194706
    length 0.88697700000000002
    axis 4.6505600000000004e-015 90 90 xyz
    dof ry 
    limits (-180 0)
  end
  begin
    id 21
    name lhand
    direction 1 -4.48973e-011 -1.3174599999999999e-026
    length 0.5306265
    axis 8.4064999999999996e-015 90 90 xyz
    dof rx rz 
    limits (-90 90)
           (-45 45)
  end
  begin
    id 22
    name lfingers
    direction 1 -4.49107e-011 -2.6349199999999999e-026
    length 0.42780555000000003
    axis 1.6812999999999999e-014 90 90 xyz
    dof rx 
    limits (0 90)
  end
  begin
    id 23
    name lthumb
    direction 0.70710700000000004 -6.3504800000000005e-011 0.70710700000000004
    length 0.6142455
    axis -90 45 2.8529899999999998e-015 xyz
    dof rx rz 
    limits (-45 45)
           (-45 45)
  end
  begin
    id 24
    name rclavicle
    direction -0.996699 0.064289499999999999 -0.049572499999999999
    length 2.0817494999999999
    axis 0 0 0 xyz
    dof ry rz 
    limits (-10 20)
           (-20 0)
  end
  begin
    id 25
    name rhumerus
    direction -1 -4.4891899999999998e-011 -2.4105900000000001e-027
    length 2.474145
    axis 180 30 90 xyz
    dof rx ry rz 
    limits (-90 60)
           (-90 90)
           (-90 90)
  end
  begin
    id 26
    name rradius
    direction -0.99999899999999997 0.0011810099999999999 -0.00068185800000000003
    length 1.5677145000000001
    axis 180 30 90 xyz
    dof rx 
    limits (-10 170)
  end
  begin
    id 27
    name rwrist
    direction -0.99999899999999997 0.000321823 -0.00132288
    length 0.78385499999999997
    axis 4.6505600000000004e-015 -90 -90 xyz
    dof ry 
    limits (-180 0)
  end
  begin
    id 28
    name rhand
    direction -1 -4.4902199999999998e-011 -1.3174599999999999e-026
    length 0.60719400000000001
    axis 8.4064999999999996e-015 -90 -90 xyz
    dof rx rz 
    limits (-90 90)
           (-45 45)
  end
  begin
    id 29
    name rfingers
    direction -1 -4.4917800000000002e-011 -2.6349199999999999e-026
    length 0.48953249999999998
    axis 1.6812999999999999e-014 -90 -90 xyz
    dof rx 
    limits (0 90)
  end
  begin
    id 30
    name rthumb
    direction -0.70710700000000004 -6.3471300000000002e-011 0.70710700000000004
    length 0.70287750000000004
    axis -90 -45 -2.8529899999999998e-015 xyz
    dof rx rz 
    limits (-45 45)
           (-45 45)
  end
:hierarchy
begin
  root lhipjoint rhipjoint lowerback 
  lhipjoint lfemur 
  lfemur ltibia 
  ltibia lfoot 
  lfoot ltoes 
  rhipjoint rfemur 
  rfemur rtibia 
  rtibia rfoot 
  rfoot rtoes 
  lowerback upperback 
  upperback thorax 
  thorax lowerneck lclavicle rclavicle 
  lowerneck upperneck 
  upperneck head 
  lclavicle lhumerus 
  lhumerus lradius 
  lradius lwrist 
  lwrist lhand lthumb 
  lhand lfingers 
  rclavicle rhumerus 
  rhumerus rradius 
  rradius rwrist 
  rwrist rhand rthumb 
  rhand rfingers 
end

# AMC file generated by Tido's AMC writer for MATLAB on 27-Nov-2005 at 18:24:20
# Corresponding ASF file: S:\data_MoCap\MoCaDaDB\HDM\Bonn_ASF_AMC_Use IK_on\björn\bjorn.asf
# Number of frames: 542
# Sampling rate: 120
:fully-specified
:degrees
272
root 4.8132450000000002 8.4915900000000004 -12.304349999999999 0.98075100000000004 69.731700000000004 365.65899999999999 
lfemur -8.4296199999999999 8.7616300000000003 -9.0912299999999995 
ltibia 70.512500000000003 
lfoot 10.419 1.77234 
ltoes -14.603899999999999 
rfemur -12.9245 -4.41784 26.806699999999999 
rtibia 38.142499999999998 
rfoot -17.179600000000001 9.7090399999999999 
rtoes 6.2241799999999996 
lowerback -1.23817 0.0024068599999999998 1.11134 
upperback 11.112 0.31984000000000001 -0.66363399999999995 
thorax 12.6816 0.45342199999999999 -1.2717799999999999 
lowerneck 2.6226699999999998 -9.1522299999999994 0.51699399999999995 
upperneck 7.02433 -12.6135 10.331899999999999 
head 2.5367099999999998 -5.9909800000000004 3.06216 
lclavicle -5.3671900000000003e-015 9.9392299999999996e-015 
lhumerus -23.682099999999998 32.327399999999997 76.0441 
lradius 9.5132499999999993 
lwrist -68.904499999999999 
lhand -5.5704000000000002 -4.1273400000000002 
lfingers 7.1250200000000001 
lthumb 20.2453 24.837599999999998 
rclavicle -5.3671900000000003e-015 9.9392299999999996e-015 
rhumerus -21.142600000000002 -10.687200000000001 -94.749399999999994 
rradius 35.866 
rwrist 17.465 
rhand -9.1001899999999996 12.4438 
rfingers 7.1250200000000001 
rthumb 16.850000000000001 -16.845099999999999 
273
root 4.8814200000000003 8.4939749999999989 -12.287205 0.87822999999999996 69.073499999999996 365.548 
lfemur -9.7524599999999992 8.5450400000000002 -9.3665800000000008 
ltibia 70.676400000000001 
lfoot 9.5174099999999999 1.25478 
ltoes -16.9665 
rfemur -12.206799999999999 -4.06487 26.737300000000001 
rtibia 37.894199999999998 
rfoot -17.476700000000001 10.041700000000001 
rtoes 6.2156599999999997 
lowerback -1.2152000000000001 0.116243 1.1509799999999999 
upperback 11.1256 0.47341499999999997 -0.69336799999999998 
thorax 12.6898 0.53331399999999995 -1.30785 
lowerneck 2.6191499999999999 -9.13415 0.61353599999999997 
upperneck 7.0424800000000003 -12.587899999999999 10.3119 
head 2.5331399999999999 -5.9751000000000003 3.03932 
lclavicle -5.4168799999999998e-015 -8.5477400000000003e-015 
lhumerus -24.440799999999999 32.4863 76.154300000000006 
lradius 9.2428100000000004 
lwrist -69.311099999999996 
lhand -4.7478800000000003 -3.4313400000000001 
lfingers 7.1250200000000001 
lthumb 21.035599999999999 25.447800000000001 
rclavicle -5.4168799999999998e-015 -8.5477400000000003e-015 
rhumerus -20.9223 -9.3227600000000006 -94.994100000000003 
rradius 37.828099999999999 
rwrist 16.168099999999999 
rhand -9.0441500000000001 12.3079 
rfingers 7.1250200000000001 
rthumb 16.9039 -16.976400000000002 
274
root 4.9489650000000003 8.4957750000000001 -12.270149999999999 0.81541399999999997 68.427400000000006 365.44400000000002 
lfemur -11.092000000000001 8.2877200000000002 -9.6613000000000007 
ltibia 70.681399999999996 
lfoot 8.5119500000000006 0.74676600000000004 
ltoes -19.476900000000001 
rfemur -11.539 -3.70757 26.665299999999998 
rtibia 37.643500000000003 
rfoot -17.759399999999999 10.3979 
rtoes 6.2778700000000001 
lowerback -1.2172400000000001 0.23428399999999999 1.2190399999999999 
upperback 11.1266 0.63195299999999999 -0.74829199999999996 
thorax 12.7003 0.619834 -1.38659 
lowerneck 2.6858300000000002 -9.1335599999999992 0.74785100000000004 
upperneck 7.0050600000000003 -12.576000000000001 10.289999999999999 
head 2.4962900000000001 -5.9696499999999997 3.01328 
lclavicle 1.4958499999999999e-014 -2.1866300000000002e-015 
lhumerus -25.3886 32.570799999999998 76.147900000000007 
lradius 9.1537000000000006 
lwrist -69.409499999999994 
lhand -4.0359499999999997 -2.67178 
lfingers 7.1250200000000001 
lthumb 21.7194 26.129799999999999 
rclavicle 1.4958499999999999e-014 -2.1866300000000002e-015 
rhumerus -20.877700000000001 -8.0351300000000005 -95.256900000000002 
rradius 39.997900000000001 
rwrist 14.519 
rhand -9.1724499999999995 12.110799999999999 
rfingers 7.1250200000000001 
rthumb 16.7804 -17.184100000000001 
275
root 5.0170499999999993 8.4983400000000007 -12.252509999999999 0.67783899999999997 67.766199999999998 365.29599999999999 
lfemur -12.3499 7.9543100000000004 -9.9396799999999992 
ltibia 70.534300000000002 
lfoot 7.3600700000000003 0.22292000000000001 
ltoes -21.5442 
rfemur -10.813800000000001 -3.3793899999999999 26.593900000000001 
rtibia 37.364899999999999 
rfoot -17.999400000000001 10.8142 
rtoes 6.4894800000000004 
lowerback -1.20496 0.353435 1.2967200000000001 
upperback 11.1404 0.79081299999999999 -0.78931300000000004 
thorax 12.7178 0.70708499999999996 -1.4554800000000001 
lowerneck 2.7489400000000002 -9.1191200000000006 0.86299400000000004 
upperneck 6.9725900000000003 -12.546900000000001 10.2799 
head 2.4632200000000002 -5.9556300000000002 2.99472 
lclavicle 9.4422700000000003e-015 -8.5477400000000003e-015 
lhumerus -26.295500000000001 32.655700000000003 76.111500000000007 
lradius 9.0736799999999995 
lwrist -69.335899999999995 
lhand -3.3953000000000002 -2.0592700000000002 
lfingers 7.1250200000000001 
lthumb 22.334499999999998 26.669799999999999 
rclavicle 9.4422700000000003e-015 -8.5477400000000003e-015 
rhumerus -20.840900000000001 -6.6547499999999999 -95.421199999999999 
rradius 42.192999999999998 
rwrist 12.591200000000001 
rhand -9.5015900000000002 11.900499999999999 
rfingers 7.1250200000000001 
rthumb 16.4636 -17.4209 
276
root 5.0849099999999998 8.5008149999999993 -12.2346 0.570492 67.117900000000006 365.15600000000001 
lfemur -13.608499999999999 7.5494700000000003 -10.23 
ltibia 70.258300000000006 
lfoot 6.1130899999999997 -0.31039299999999997 
ltoes -23.148599999999998 
rfemur -10.1091 -3.1392500000000001 26.511700000000001 
rtibia 37.070500000000003 
rfoot -18.206600000000002 11.2751 
rtoes 6.6666699999999999 
lowerback -1.18814 0.45998 1.3652599999999999 
upperback 11.1335 0.931257 -0.82359700000000002 
thorax 12.7075 0.78313699999999997 -1.51441 
lowerneck 2.8161 -9.1048399999999994 0.92012300000000002 
upperneck 6.9783299999999997 -12.5228 10.276899999999999 
head 2.4475199999999999 -5.9437699999999998 2.9879600000000002 
lclavicle 1.2275e-014 7.9513900000000002e-016 
lhumerus -27.275300000000001 32.790799999999997 76.124600000000001 
lradius 9.0446200000000001 
lwrist -69.197699999999998 
lhand -2.94028 -1.3625799999999999 
lfingers 7.1250200000000001 
lthumb 22.7713 27.313500000000001 
rclavicle 1.2275e-014 7.9513900000000002e-016 
rhumerus -20.895399999999999 -5.4465599999999998 -95.489199999999997 
rradius 44.410699999999999 
rwrist 10.887 
rhand -9.8246500000000001 11.9666 
rfingers 7.1250200000000001 
rthumb 16.1525 -17.380299999999998 
